<svg id="opensource-logo" xmlns="http://www.w3.org/2000/svg" viewBox="0 0 201.3 24.43"><defs><style>.cls-1{fill:#fff;}</style></defs><title>Artboard 2</title><path class="cls-1" d="M22.74,12a6.89,6.89,0,0,1-.47,2.45,4.39,4.39,0,0,1-1.22,1.88,4.32,4.32,0,0,1-1.88,1.23,6.69,6.69,0,0,1-4.9,0,5.08,5.08,0,0,1-1.88-1.23,6.3,6.3,0,0,1-1.23-1.88A10.64,10.64,0,0,1,10.79,12V7.77a7.11,7.11,0,0,1,.47-2.45,4.49,4.49,0,0,1,1.22-1.89,4.33,4.33,0,0,1,1.88-1.21,6.59,6.59,0,0,1,4.9,0,4.92,4.92,0,0,1,1.88,1.23,6.51,6.51,0,0,1,1.23,1.88,6.68,6.68,0,0,1,.47,2.45V12h-.1ZM20.58,7.67a3.84,3.84,0,0,0-1-2.82,3.84,3.84,0,0,0-2.82-1,3.86,3.86,0,0,0-2.83,1,3.82,3.82,0,0,0-1,2.82v4.52a3.88,3.88,0,0,0,1,2.83,3.84,3.84,0,0,0,2.83,1,3.8,3.8,0,0,0,2.82-1,3.89,3.89,0,0,0,1-2.83Zm4.61-3.76a1.5,1.5,0,0,1,1-1.42,15.19,15.19,0,0,1,4.69-.75,6.57,6.57,0,0,1,2.36.38,5.71,5.71,0,0,1,1.79,1.13A5.75,5.75,0,0,1,36.2,5a6.2,6.2,0,0,1,.38,2.35v4.8a6.6,6.6,0,0,1-.38,2.36,5.86,5.86,0,0,1-1.13,1.79,5.66,5.66,0,0,1-4.14,1.5,8.58,8.58,0,0,1-3.58-.94v6.5a1.1,1.1,0,0,1-.28.75,1.08,1.08,0,0,1-.76.28,1.1,1.1,0,0,1-.75-.28,1.06,1.06,0,0,1-.28-.75V3.9h-.09ZM34.42,7.3a3.49,3.49,0,0,0-.94-2.64,3.48,3.48,0,0,0-2.64-.94,12,12,0,0,0-3.57.56V14.84a4.11,4.11,0,0,0,1.6.94,6,6,0,0,0,1.88.28,3.49,3.49,0,0,0,2.64-.94,3.48,3.48,0,0,0,.94-2.64V7.3h.09Zm6.69,3.3v1.69A3.87,3.87,0,0,0,42.05,15a3.53,3.53,0,0,0,2.64,1,5.68,5.68,0,0,0,1.78-.28,13.23,13.23,0,0,0,1.7-.66.8.8,0,0,1,.47-.1,1.07,1.07,0,0,1,.75.29,1,1,0,0,1,.29.75,1,1,0,0,1-.57.95,8.7,8.7,0,0,1-2.17.75,9,9,0,0,1-2.25.19,6.6,6.6,0,0,1-2.36-.38,4.79,4.79,0,0,1-1.79-1.13,5.6,5.6,0,0,1-1.13-1.79A6.07,6.07,0,0,1,39,12.29V7.49a6.6,6.6,0,0,1,.37-2.36,5.75,5.75,0,0,1,1.13-1.79,5.54,5.54,0,0,1,1.8-1.13,6.29,6.29,0,0,1,2.34-.37A6.51,6.51,0,0,1,47,2.22a5.87,5.87,0,0,1,1.79,1.12A5.75,5.75,0,0,1,50,5.13a6.2,6.2,0,0,1,.38,2.35v1.6a1.31,1.31,0,0,1-1.42,1.42H41.12v.1Zm7.15-3.3a3.49,3.49,0,0,0-.94-2.64,3.47,3.47,0,0,0-2.63-.94,3.49,3.49,0,0,0-2.64.94,3.48,3.48,0,0,0-.94,2.64V8.61h7.15Zm13.84,0a3.49,3.49,0,0,0-.94-2.64,3.47,3.47,0,0,0-2.63-.94A11.56,11.56,0,0,0,55,4.28V16.9a1.1,1.1,0,0,1-.28.75,1,1,0,0,1-1.79-.75V3.9a1.49,1.49,0,0,1,1-1.4,14.45,14.45,0,0,1,4.71-.76A6.51,6.51,0,0,1,61,2.12a5.75,5.75,0,0,1,1.8,1.13A5.91,5.91,0,0,1,63.89,5a6,6,0,0,1,.38,2.35v9.42a1.1,1.1,0,0,1-.28.75,1,1,0,0,1-.75.28,1.13,1.13,0,0,1-.76-.28,1.06,1.06,0,0,1-.28-.75V7.3Zm7.26,2.63a4.49,4.49,0,0,1-1.89-1.41A3.61,3.61,0,0,1,66.62,6,3.26,3.26,0,0,1,67,4.28a4.86,4.86,0,0,1,2.73-2.16,6.07,6.07,0,0,1,2-.28A14.77,14.77,0,0,1,73.79,2c.57.2,1.23.38,1.7.57a1,1,0,0,1,.65,1,.72.72,0,0,1-.28.66,1.73,1.73,0,0,1-.75.29.55.55,0,0,1-.38-.1,7.24,7.24,0,0,0-3.2-.66,3,3,0,0,0-.94.1,3.28,3.28,0,0,0-.85.37,1.61,1.61,0,0,0-.66.66,1.81,1.81,0,0,0-.28,1,2,2,0,0,0,.47,1.41,3.39,3.39,0,0,0,1,.75l2.92,1.23A5.78,5.78,0,0,1,75.49,11a4,4,0,0,1,.84,2.54A3.86,3.86,0,0,1,76,15.3a5.53,5.53,0,0,1-1,1.5,4.48,4.48,0,0,1-1.6.95,4.38,4.38,0,0,1-2,.37,14.93,14.93,0,0,1-2.16-.18,12.71,12.71,0,0,1-1.89-.66,1,1,0,0,1-.65-.94,1,1,0,0,1,1-1h.19c.1,0,.1.1.19.1.47.18,1,.37,1.6.56a5.45,5.45,0,0,0,1.79.19,3,3,0,0,0,1.88-.57,1.89,1.89,0,0,0,.85-1.7,2.22,2.22,0,0,0-.47-1.5,5.37,5.37,0,0,0-1.5-1l-2.84-1.4ZM90.82,12a6.89,6.89,0,0,1-.47,2.45,4.45,4.45,0,0,1-1.22,1.88,4.3,4.3,0,0,1-1.89,1.23,6.69,6.69,0,0,1-4.9,0,5.12,5.12,0,0,1-1.87-1.23,6.3,6.3,0,0,1-1.23-1.88A6.63,6.63,0,0,1,78.77,12V7.77a7.11,7.11,0,0,1,.47-2.45,4.3,4.3,0,0,1,1.23-1.89,4.21,4.21,0,0,1,1.88-1.22,6.59,6.59,0,0,1,4.9,0,5,5,0,0,1,1.88,1.23,6.29,6.29,0,0,1,1.22,1.88,6.48,6.48,0,0,1,.47,2.45ZM88.66,7.67a3.84,3.84,0,0,0-1-2.82,4.36,4.36,0,0,0-5.65,0,3.83,3.83,0,0,0-1,2.82v4.52A3.84,3.84,0,0,0,82,15a4.39,4.39,0,0,0,5.65,0,3.85,3.85,0,0,0,1-2.83Zm13.84-4.8a1.1,1.1,0,0,1,.28-.75,1,1,0,0,1,.75-.29,1.07,1.07,0,0,1,.76.29,1,1,0,0,1,.28.75v13a1.56,1.56,0,0,1-.28.84,1.33,1.33,0,0,1-.66.57,10.38,10.38,0,0,1-2.26.56A18.61,18.61,0,0,1,99,18a5.5,5.5,0,0,1-4.15-1.5,5.58,5.58,0,0,1-1.5-4.15V3a1.06,1.06,0,0,1,.28-.75,1.06,1.06,0,0,1,.75-.28,1.09,1.09,0,0,1,.75.28,1,1,0,0,1,.29.75v9.51a3.49,3.49,0,0,0,.94,2.64,3.47,3.47,0,0,0,2.63.94,12,12,0,0,0,3.58-.56V2.87Zm4.61,3.2a5.46,5.46,0,0,1,.29-1.79A3.16,3.16,0,0,1,108.24,3a3.24,3.24,0,0,1,1.32-.85,4.35,4.35,0,0,1,1.6-.28,10.37,10.37,0,0,1,2.26.28.65.65,0,0,1,.57.37.92.92,0,0,1,.19.66,1.07,1.07,0,0,1-.29.76,1.09,1.09,0,0,1-.75.28h-.28a.32.32,0,0,1-.28-.1c-.29,0-.48-.09-.76-.09h-.75a1.88,1.88,0,0,0-1.41.57,2.19,2.19,0,0,0-.57,1.6V17.09a1.1,1.1,0,0,1-.28.75,1.05,1.05,0,0,1-.75.29,1.07,1.07,0,0,1-.76-.29,1.06,1.06,0,0,1-.28-.75v-11h.09Zm9.6,1.41a6.55,6.55,0,0,1,.38-2.35,5,5,0,0,1,1.13-1.79A5.54,5.54,0,0,1,120,2.21a6.07,6.07,0,0,1,2.35-.38,8.57,8.57,0,0,1,4,.95.94.94,0,0,1,.56.94,1.1,1.1,0,0,1-.28.75,1.06,1.06,0,0,1-.75.28.9.9,0,0,1-.48-.09A4.87,4.87,0,0,0,124,4.1a4.43,4.43,0,0,0-1.6-.2,3.5,3.5,0,0,0-2.64.95,3.48,3.48,0,0,0-.94,2.64v5a3.47,3.47,0,0,0,.94,2.63,3.48,3.48,0,0,0,2.64.94,9.8,9.8,0,0,0,1.6-.18c.56-.2,1-.38,1.5-.57a.85.85,0,0,1,.48-.1,1,1,0,0,1,1,1,.94.94,0,0,1-.56.94,8.92,8.92,0,0,1-4,.94,6.6,6.6,0,0,1-2.36-.37,4.79,4.79,0,0,1-1.79-1.13,5.86,5.86,0,0,1-1.13-1.8,6,6,0,0,1-.37-2.34v-5Zm15,3.11v1.7a3.87,3.87,0,0,0,.94,2.73,3.53,3.53,0,0,0,2.64,1,5.74,5.74,0,0,0,1.79-.28,13.82,13.82,0,0,0,1.7-.66.76.76,0,0,1,.46-.1,1.07,1.07,0,0,1,.76.29,1.1,1.1,0,0,1,.28.75,1,1,0,0,1-.57.95,8.63,8.63,0,0,1-2.16.75,9.09,9.09,0,0,1-2.26.19,6.6,6.6,0,0,1-2.36-.38A4.74,4.74,0,0,1,130,14.64a6.07,6.07,0,0,1-.38-2.35V7.49A6.6,6.6,0,0,1,130,5.13a5.57,5.57,0,0,1,1.13-1.79,5.73,5.73,0,0,1,1.78-1.13,6.09,6.09,0,0,1,2.36-.38,6.51,6.51,0,0,1,2.35.38,5.75,5.75,0,0,1,1.8,1.13,5.91,5.91,0,0,1,1.12,1.79,6.2,6.2,0,0,1,.38,2.35v1.6a1.31,1.31,0,0,1-1.41,1.42h-7.82v.1Zm7.16-3.3a3.49,3.49,0,0,0-.95-2.63,4.16,4.16,0,0,0-5.27,0,3.48,3.48,0,0,0-.94,2.64V8.61h7.16V7.3Zm7.53,9.14a1.64,1.64,0,0,1-1.51,1.51,1.64,1.64,0,0,1-1.5-1.51,1.5,1.5,0,0,1,.47-1,1.37,1.37,0,0,1,2.07,0A1.2,1.2,0,0,1,146.38,16.43Zm2.54-8.95a6.55,6.55,0,0,1,.38-2.35,5.6,5.6,0,0,1,1.13-1.79,5.6,5.6,0,0,1,1.79-1.13,6.07,6.07,0,0,1,2.35-.38,8.54,8.54,0,0,1,4.05.95.93.93,0,0,1,.56.94,1.06,1.06,0,0,1-.28.75,1.06,1.06,0,0,1-.75.28.88.88,0,0,1-.47-.09,4.87,4.87,0,0,0-1.5-.56,4.46,4.46,0,0,0-1.61-.2,3.5,3.5,0,0,0-2.64.95A3.48,3.48,0,0,0,151,7.49v5a3.47,3.47,0,0,0,.94,2.63,3.49,3.49,0,0,0,2.64.94,9.68,9.68,0,0,0,1.6-.18c.57-.2,1-.38,1.5-.57a.85.85,0,0,1,.48-.1,1,1,0,0,1,1,1,1,1,0,0,1-.57.94,8.92,8.92,0,0,1-4.05.94,6.51,6.51,0,0,1-2.35-.37,4.91,4.91,0,0,1-1.8-1.13,5.91,5.91,0,0,1-1.12-1.8,6.06,6.06,0,0,1-.38-2.34v-5ZM173.69,12a7.36,7.36,0,0,1-.47,2.45A4.47,4.47,0,0,1,172,16.33a5.12,5.12,0,0,1-1.88,1.23,6.69,6.69,0,0,1-4.9,0,5.08,5.08,0,0,1-1.88-1.23,6.65,6.65,0,0,1-1.23-1.88,6.48,6.48,0,0,1-.47-2.45V7.77a7.36,7.36,0,0,1,.47-2.45,4.27,4.27,0,0,1,1.23-1.89,4.21,4.21,0,0,1,1.88-1.22,6.59,6.59,0,0,1,4.9,0A4.92,4.92,0,0,1,172,3.44a6.51,6.51,0,0,1,1.23,1.88,6.68,6.68,0,0,1,.47,2.45Zm-2.17-4.33a3.87,3.87,0,0,0-1-2.82,4.36,4.36,0,0,0-5.65,0,3.84,3.84,0,0,0-1,2.82v4.52a3.85,3.85,0,0,0,1,2.83,4.39,4.39,0,0,0,5.65,0,3.84,3.84,0,0,0,1-2.83ZM193.18,7a2.71,2.71,0,0,0-.28-1.22,4.39,4.39,0,0,0-.66-1,2.4,2.4,0,0,0-1-.66A2.9,2.9,0,0,0,190,3.81a5.39,5.39,0,0,0-3.2,1V17a1.07,1.07,0,0,1-.29.76,1.06,1.06,0,0,1-.75.28,1.1,1.1,0,0,1-.75-.28,1.06,1.06,0,0,1-.29-.76V6a2.86,2.86,0,0,0-.18-.94,1.5,1.5,0,0,0-.66-.66,2.55,2.55,0,0,0-.94-.38,4,4,0,0,0-1-.1,12.64,12.64,0,0,0-3.67.57V17.09a1.1,1.1,0,0,1-.28.75,1.08,1.08,0,0,1-.76.28,1,1,0,0,1-1-1V4a1.62,1.62,0,0,1,.28-.85,1.27,1.27,0,0,1,.66-.56,20.65,20.65,0,0,1,2.35-.66,10.24,10.24,0,0,1,2.45-.19,4.84,4.84,0,0,1,2.07.38,4.77,4.77,0,0,1,1.6,1,6.09,6.09,0,0,1,2.07-1A6.32,6.32,0,0,1,190,1.74,5.13,5.13,0,0,1,195.24,7v9.8a1.1,1.1,0,0,1-.27.75,1.05,1.05,0,0,1-.76.28,1.1,1.1,0,0,1-.75-.28,1.05,1.05,0,0,1-.28-.76Z"/></svg>