<svg id="opensource-logo" xmlns="http://www.w3.org/2000/svg" viewBox="0 0 201.3 32.5"><defs><style>.cls-1{fill:#69bf29;}.cls-2{fill:#fff;}</style></defs><title>opensource- banner</title><g id="Layer_2" data-name="Layer 2"><path class="cls-1" d="M7,2.92l8.85,13.29L7,27.31H199.86l-8-11.11,8-13.28Z"/><path class="cls-2" d="M41.67,20.06a.7.7,0,0,1-.37-.19.49.49,0,0,1-.2-.38V10.36l-1.78,1.05a.34.34,0,0,1-.28.1.54.54,0,0,1-.38-.1.5.5,0,0,1-.19-.38.32.32,0,0,1,.1-.28.2.2,0,0,1,.18-.19l2.36-1.41a.33.33,0,0,1,.28-.1c.19,0,.28.1.47.2s.19.27.19.46v9.7a.76.76,0,0,1-.19.38c-.1.1-.1.28-.19.28Z"/><path class="cls-2" d="M50.43,10a2.38,2.38,0,0,0-1-.65,5.23,5.23,0,0,0-1.32-.2,3,3,0,0,0-1.31.2,2.73,2.73,0,0,0-1,.65,3.81,3.81,0,0,0-.65,1,5.3,5.3,0,0,0-.2,1.32v4.52a3,3,0,0,0,.19,1.32,2.68,2.68,0,0,0,.66,1,2.5,2.5,0,0,0,1,.66,5.57,5.57,0,0,0,1.31.19,2.76,2.76,0,0,0,1.23-.19,2.89,2.89,0,0,0,1-.66,4.3,4.3,0,0,0,.66-1,5.83,5.83,0,0,0,.19-1.32h.1V12.33A3,3,0,0,0,50.43,10Zm-.19,6.88a2.28,2.28,0,0,1-3.77,1.6,2.24,2.24,0,0,1-.56-1.6V12.24a2.22,2.22,0,0,1,.57-1.6,2.55,2.55,0,0,1,3.2,0,2.23,2.23,0,0,1,.56,1.6Z"/><path class="cls-2" d="M59.19,19.87l-2.55-7v-.19a.52.52,0,0,1,.1-.37.48.48,0,0,1,.37-.19.34.34,0,0,1,.29.1c.1.09.18.09.18.28l2.08,5.93,1.78-5.84c0-.1.1-.19.2-.28a.32.32,0,0,1,.28-.1.65.65,0,0,1,.37.2.45.45,0,0,1,.19.37V13l-2.64,8.47a3,3,0,0,1-.94,1.42,2.6,2.6,0,0,1-1.7.47.54.54,0,0,1-.37-.1.48.48,0,0,1-.19-.37.67.67,0,0,1,.2-.38.45.45,0,0,1,.37-.19,1.78,1.78,0,0,0,1.7-1.22Z"/><path class="cls-2" d="M70.58,13.85A2.05,2.05,0,0,0,70,13a1.34,1.34,0,0,0-.84-.56,4.55,4.55,0,0,0-1.13-.2,4.38,4.38,0,0,0-1.13.19,2.27,2.27,0,0,0-.85.57,1.41,1.41,0,0,0-.57.85A5.43,5.43,0,0,0,65.31,15v2.35a4.93,4.93,0,0,0,.18,1.13,4.68,4.68,0,0,0,.57.85,1.4,1.4,0,0,0,.85.56,4.34,4.34,0,0,0,2.26.1,5.55,5.55,0,0,0,1-.38.52.52,0,0,0,.28-.47.44.44,0,0,0-.18-.37.55.55,0,0,0-.37-.1h-.2l-.85.27A2.42,2.42,0,0,1,68,19a1.52,1.52,0,0,1-1.32-.47,2,2,0,0,1-.47-1.32v-.84h3.86a.7.7,0,0,0,.47-.19.73.73,0,0,0,.19-.47V15A4.38,4.38,0,0,0,70.58,13.85Zm-.85,1.69H66.25v-.66a1.54,1.54,0,0,1,.47-1.32A2.06,2.06,0,0,1,68,13.09a1.79,1.79,0,0,1,1.22.47,2.08,2.08,0,0,1,.47,1.32Z"/><path class="cls-2" d="M78.77,13.47a1.42,1.42,0,0,0-.56-.75,3.24,3.24,0,0,0-1.89-.67,4.36,4.36,0,0,0-1.13.1,6.31,6.31,0,0,0-1.13.47.53.53,0,0,0-.28.47.52.52,0,0,0,.19.38.54.54,0,0,0,.38.1.35.35,0,0,0,.28-.1,3,3,0,0,1,.85-.37,2.42,2.42,0,0,1,.84-.1,2,2,0,0,1,1.13.38,1.35,1.35,0,0,1,.48,1v.94h-1.7a4.46,4.46,0,0,0-1.22.19,2.34,2.34,0,0,0-.85.47,2.27,2.27,0,0,0-.66,1.69,2,2,0,0,0,.66,1.7,2.75,2.75,0,0,0,2.07.66A4.79,4.79,0,0,0,77.36,20l1.13-.29a1,1,0,0,0,.37-.28c.1-.09.1-.18.1-.38V14.5A3.2,3.2,0,0,0,78.77,13.47Zm-.84,5.37a5.65,5.65,0,0,1-1.7.28,2.47,2.47,0,0,1-.94-.1,1.43,1.43,0,0,1-.57-.37,1.06,1.06,0,0,1-.18-.47.8.8,0,0,1-.1-.47c0-.19.1-.3.1-.48a.71.71,0,0,1,.18-.47l.57-.27a2.68,2.68,0,0,1,.93-.1h1.71Z"/><path class="cls-2" d="M81.6,14.22a3.32,3.32,0,0,1,.18-.85,5.31,5.31,0,0,1,.38-.66,1.58,1.58,0,0,1,.66-.37,2.08,2.08,0,0,1,.75-.19,4.68,4.68,0,0,1,1.13.1.44.44,0,0,1,.28.18.36.36,0,0,1,.1.29.73.73,0,0,1-.19.37c-.1.1-.19.1-.38.1h-.19a.52.52,0,0,1-.37-.1h-.38a.89.89,0,0,0-.66.28,1.15,1.15,0,0,0-.28.76V19.4a.76.76,0,0,1-.19.38c-.1.1-.18.28-.28.28a.76.76,0,0,1-.38-.19.51.51,0,0,1-.18-.38Z"/><path class="cls-2" d="M95.81,13.47a1.42,1.42,0,0,0-.56-.75,3.6,3.6,0,0,0-.85-.47,3.69,3.69,0,0,0-1-.2,4.29,4.29,0,0,0-1.13.1,5.09,5.09,0,0,0-1.13.47.53.53,0,0,0-.29.47.49.49,0,0,0,.19.38.56.56,0,0,0,.38.1.34.34,0,0,0,.28-.1,3.14,3.14,0,0,1,.85-.37,2.45,2.45,0,0,1,.85-.1,2,2,0,0,1,1.13.38,1.38,1.38,0,0,1,.47,1v.94h-1.7a4.52,4.52,0,0,0-1.22.19,2.34,2.34,0,0,0-.85.47,2.27,2.27,0,0,0-.66,1.69,2,2,0,0,0,.66,1.7,2.75,2.75,0,0,0,2.07.66A4.75,4.75,0,0,0,94.4,20l1.13-.29a1,1,0,0,0,.37-.28c.1-.09.1-.18.1-.38h0V14.5A3.2,3.2,0,0,0,95.81,13.47ZM95,18.84a5.6,5.6,0,0,1-1.7.28,2.49,2.49,0,0,1-.94-.1,1.38,1.38,0,0,1-.56-.37c-.09-.19-.19-.29-.19-.47a.8.8,0,0,1-.1-.47c0-.19.09-.3.09-.48a.73.73,0,0,1,.2-.47l.56-.27a2.74,2.74,0,0,1,.94-.1H95Z"/><path class="cls-2" d="M103.25,14.88a2,2,0,0,0-.47-1.32,1.79,1.79,0,0,0-1.22-.47,5.6,5.6,0,0,0-1.7.28v6.12a.78.78,0,0,1-.18.38.72.72,0,0,1-.38.19.76.76,0,0,1-.38-.19.49.49,0,0,1-.19-.38v-6.3c0-.2,0-.29.1-.38a1.28,1.28,0,0,1,.37-.28,5.63,5.63,0,0,1,2.26-.38,4.86,4.86,0,0,1,1.13.19,1.39,1.39,0,0,1,.85.56,2.35,2.35,0,0,1,.57.85,4.44,4.44,0,0,1,.18,1.13v4.61a.7.7,0,0,1-.18.38.5.5,0,0,1-.38.19.54.54,0,0,1-.38-.19.51.51,0,0,1-.18-.38V14.88Z"/><path class="cls-2" d="M111.45,14.88a2.08,2.08,0,0,0-.48-1.32,1.45,1.45,0,0,0-1.22-.47,5.65,5.65,0,0,0-1.7.28v6.12a.7.7,0,0,1-.18.38.49.49,0,0,1-.38.19.76.76,0,0,1-.38-.19.51.51,0,0,1-.18-.38v-6.3c0-.2,0-.29.09-.38a1.24,1.24,0,0,1,.38-.28,5.63,5.63,0,0,1,2.26-.38,5,5,0,0,1,1.13.19,1.31,1.31,0,0,1,.84.56,2.12,2.12,0,0,1,.57.85,4.46,4.46,0,0,1,.19,1.13v4.61a.67.67,0,0,1-.2.38.45.45,0,0,1-.37.19.48.48,0,0,1-.37-.19.49.49,0,0,1-.2-.38V14.88Z"/><path class="cls-2" d="M115.87,10.55a.79.79,0,0,1-.47-.19.7.7,0,0,1-.19-.47.68.68,0,0,1,.2-.47.63.63,0,0,1,.46-.19.73.73,0,0,1,.47.19.7.7,0,0,1,.2.47.68.68,0,0,1-.2.47C116.15,10.46,116.06,10.55,115.87,10.55Z"/><path class="cls-2" d="M115.31,12.71a.79.79,0,0,1,.18-.37.5.5,0,0,1,.38-.19.52.52,0,0,1,.38.19.47.47,0,0,1,.18.37v6.78a.7.7,0,0,1-.18.38.5.5,0,0,1-.38.19.52.52,0,0,1-.38-.19.51.51,0,0,1-.18-.38V12.72Z"/><path class="cls-2" d="M119.26,12.91h0v-.2a.37.37,0,0,1,.19-.37c.19-.09.19-.19.37-.19a.34.34,0,0,1,.29.1c.1.09.19.18.19.28l1.88,5.74L124,12.53c0-.1.1-.2.19-.29a.36.36,0,0,1,.28-.09.56.56,0,0,1,.38.1.47.47,0,0,1,.18.37v.19l-2.16,6.78c0,.1-.1.19-.19.28s-.19.1-.38.1-.28,0-.37-.1-.2-.19-.2-.28l-2.44-6.69Z"/><path class="cls-2" d="M132.91,13.85a2.12,2.12,0,0,0-.56-.85,1.36,1.36,0,0,0-.85-.56,4.4,4.4,0,0,0-1.13-.2,3.87,3.87,0,0,0-1.13.19,2.44,2.44,0,0,0-.85.57,1.4,1.4,0,0,0-.56.85,4.86,4.86,0,0,0-.19,1.13v2.35a4.46,4.46,0,0,0,.19,1.13,4.14,4.14,0,0,0,.56.85,1.43,1.43,0,0,0,.85.56,4.55,4.55,0,0,0,1.13.2,4.32,4.32,0,0,0,1.13-.1,4.8,4.8,0,0,0,1-.38.53.53,0,0,0,.28-.47.45.45,0,0,0-.19-.37.56.56,0,0,0-.38-.1h-.18l-.85.27a2.48,2.48,0,0,1-.85.1,1.54,1.54,0,0,1-1.32-.47,2.09,2.09,0,0,1-.47-1.32v-.84h3.86a.67.67,0,0,0,.67-.66V15A4.4,4.4,0,0,0,132.91,13.85Zm-.84,1.69h-3.49v-.66a1.57,1.57,0,0,1,.47-1.32,2.28,2.28,0,0,1,1.32-.47,1.49,1.49,0,0,1,1.23.47,2.13,2.13,0,0,1,.47,1.32Z"/><path class="cls-2" d="M135.83,14.22a2.69,2.69,0,0,1,.2-.85,3.1,3.1,0,0,1,.37-.66,1.52,1.52,0,0,1,.66-.37,2.08,2.08,0,0,1,.75-.19,4.68,4.68,0,0,1,1.13.1c.1,0,.19.09.28.18a.36.36,0,0,1,.1.29.68.68,0,0,1-.2.37c-.09.1-.18.1-.37.1h-.19a.51.51,0,0,1-.37-.1h-.38a.89.89,0,0,0-.66.28,1.1,1.1,0,0,0-.28.76V19.4a.76.76,0,0,1-.19.38.48.48,0,0,1-.38.18.71.71,0,0,1-.37-.18.5.5,0,0,1-.19-.38V14.22h.09Z"/><path class="cls-2" d="M143.27,16.11a3.77,3.77,0,0,1-.94-.66,1.76,1.76,0,0,1-.38-1.23,2.69,2.69,0,0,1,.2-.85,1.22,1.22,0,0,1,.56-.66,1.89,1.89,0,0,1,.75-.37,3.42,3.42,0,0,1,2-.1l.84.29a.51.51,0,0,1,.29.47.65.65,0,0,1-.2.37c-.08.1-.18.1-.37.1h-.18a4.26,4.26,0,0,0-1.6-.38.82.82,0,0,0-.48.1.52.52,0,0,0-.37.18l-.29.29a.68.68,0,0,0-.1.47.73.73,0,0,0,.3.66c.18.18.37.28.46.37l1.42.57a3.54,3.54,0,0,1,1.13.75,1.91,1.91,0,0,1,.37,1.23,2.83,2.83,0,0,1-.19.84,3.49,3.49,0,0,1-.47.76,2.18,2.18,0,0,1-.75.47,3.15,3.15,0,0,1-.94.19,3.37,3.37,0,0,1-1-.1c-.28-.1-.66-.19-.94-.28a.51.51,0,0,1-.28-.47.76.76,0,0,1,.19-.38c.1-.1.19-.1.37-.1h.2c.28.1.46.2.75.29a2.42,2.42,0,0,0,.84.1,1.62,1.62,0,0,0,.95-.29.92.92,0,0,0,.37-.85,1.84,1.84,0,0,0-.19-.75,1.53,1.53,0,0,0-.75-.47l-1.5-.56Z"/><path class="cls-2" d="M154.66,13.47a1.42,1.42,0,0,0-.56-.75,3.6,3.6,0,0,0-.85-.47,3.76,3.76,0,0,0-1-.2,4.29,4.29,0,0,0-1.13.1,5.76,5.76,0,0,0-1.13.47.53.53,0,0,0-.29.47.49.49,0,0,0,.19.38.55.55,0,0,0,.38.1.34.34,0,0,0,.28-.1,3.28,3.28,0,0,1,.85-.37,2.48,2.48,0,0,1,.85-.1,2,2,0,0,1,1.13.38,1.34,1.34,0,0,1,.47,1v.94h-1.7a4.52,4.52,0,0,0-1.22.19,2.42,2.42,0,0,0-.85.47,2.31,2.31,0,0,0-.66,1.69,2,2,0,0,0,.66,1.7,2.75,2.75,0,0,0,2.07.66,4.75,4.75,0,0,0,1.13-.09l1.13-.29a1.21,1.21,0,0,0,.38-.28c.09-.09.09-.18.09-.38h0V14.5A3.2,3.2,0,0,0,154.66,13.47Zm-.74,5.37a5.65,5.65,0,0,1-1.7.28,2.47,2.47,0,0,1-.94-.1,1.43,1.43,0,0,1-.57-.37,1.06,1.06,0,0,1-.18-.47.8.8,0,0,1-.1-.47c0-.19.1-.3.1-.48a.71.71,0,0,1,.18-.47l.57-.27a2.68,2.68,0,0,1,.93-.1h1.71Z"/><path class="cls-2" d="M157.59,14.22a2.94,2.94,0,0,1,.18-.85,5.31,5.31,0,0,1,.38-.66,1.58,1.58,0,0,1,.66-.37,2.3,2.3,0,0,1,.75-.19,4.68,4.68,0,0,1,1.13.1c.1,0,.19.09.28.18a.36.36,0,0,1,.1.29.73.73,0,0,1-.19.37c-.1.1-.19.1-.38.1h-.19a.52.52,0,0,1-.37-.1h-.38a.89.89,0,0,0-.66.28,1.1,1.1,0,0,0-.28.76V19.4a.76.76,0,0,1-.19.38.48.48,0,0,1-.75,0,.5.5,0,0,1-.19-.38V14.22Z"/><path class="cls-2" d="M166.34,19.87l-2.54-7v-.19a.52.52,0,0,1,.1-.37.45.45,0,0,1,.37-.19.32.32,0,0,1,.28.1c.1.09.2.09.2.28l2.06,5.93,1.8-5.84a.43.43,0,0,1,.18-.28.34.34,0,0,1,.28-.1.74.74,0,0,1,.38.2.45.45,0,0,1,.19.37V13L167,21.47a3,3,0,0,1-.94,1.42,2.62,2.62,0,0,1-1.7.47.51.51,0,0,1-.37-.1.49.49,0,0,1-.2-.37.37.37,0,0,1,.2-.38.47.47,0,0,1,.37-.19,1.77,1.77,0,0,0,1.7-1.22Z"/></g></svg>